{
	"asset":{
		"generator":"Khronos glTF Blender I/O v3.6.28",
		"version":"2.0"
	},
	"extensionsUsed":[
		"KHR_materials_specular",
		"KHR_materials_ior",
		"KHR_texture_transform",
		"KHR_materials_transmission",
		"KHR_materials_emissive_strength"
	],
	"extensionsRequired":[
		"KHR_texture_transform"
	],
	"scene":0,
	"scenes":[
		{
			"name":"Scene",
			"nodes":[
				0
			]
		}
	],
	"nodes":[
		{
			"mesh":0,
			"name":"mesh_646.001",
			"rotation":[
				0.7071066498756409,
				0,
				0,
				0.70710688829422
			],
			"scale":[
				0.009999999776482582,
				0.009999999776482582,
				0.009999998845160007
			]
		}
	],
	"materials":[
		{
			"doubleSided":true,
			"extensions":{
				"KHR_materials_specular":{
					"specularColorFactor":[
						0.0,
						0.0,
						0.0
					]
				},
				"KHR_materials_ior":{
					"ior":1.4500000476837158
				}
			},
			"name":"mat_6.001",
			"normalTexture":{
				"index":0,
				"scale":2.5999999046325684
			},
			"pbrMetallicRoughness":{
				"baseColorTexture":{
					"index":1
				},
				"metallicRoughnessTexture":{
					"index":2
				}
			}
		},
		{
			"alphaMode":"BLEND",
			"doubleSided":true,
			"extensions":{
				"KHR_materials_specular":{
					"specularColorFactor":[
						0.19402019679546356,
						0.19402019679546356,
						0.19402019679546356
					]
				},
				"KHR_materials_ior":{
					"ior":1.4500000476837158
				}
			},
			"name":"mat_0.006",
			"pbrMetallicRoughness":{
				"baseColorFactor":[
					0,
					0,
					0,
					1
				],
				"baseColorTexture":{
					"index":3
				},
				"metallicFactor":0.4727272689342499,
				"roughnessFactor":0.5
			}
		},
		{
			"doubleSided":true,
			"extensions":{
				"KHR_materials_specular":{
					"specularColorFactor":[
						0.0,
						0.0,
						0.0
					]
				},
				"KHR_materials_ior":{
					"ior":1.4500000476837158
				}
			},
			"name":"mat_9.005",
			"pbrMetallicRoughness":{
				"baseColorTexture":{
					"index":4
				},
				"metallicFactor":0,
				"roughnessFactor":0.5
			}
		},
		{
			"doubleSided":true,
			"name":"mat_10.001",
			"pbrMetallicRoughness":{
				"baseColorTexture":{
					"index":5
				},
				"metallicFactor":0,
				"roughnessFactor":0.5
			}
		},
		{
			"doubleSided":true,
			"name":"Material.001",
			"normalTexture":{
				"index":6
			},
			"pbrMetallicRoughness":{
				"baseColorTexture":{
					"index":7
				},
				"metallicRoughnessTexture":{
					"index":8
				}
			}
		},
		{
			"alphaMode":"BLEND",
			"doubleSided":true,
			"emissiveFactor":[
				1,
				1,
				1
			],
			"emissiveTexture":{
				"extensions":{
					"KHR_texture_transform":{
						"offset":[
							0.5999999642372131,
							-1.3999998569488525
						],
						"scale":[
							1.7999999523162842,
							1.7999999523162842
						]
					}
				},
				"index":9
			},
			"extensions":{
				"KHR_materials_transmission":{
					"transmissionFactor":1
				},
				"KHR_materials_emissive_strength":{
					"emissiveStrength":2
				},
				"KHR_materials_ior":{
					"ior":1.4500000476837158
				}
			},
			"name":"Sci-fi glass",
			"pbrMetallicRoughness":{
				"baseColorTexture":{
					"extensions":{
						"KHR_texture_transform":{
							"offset":[
								0.5999999642372131,
								-1.3999998569488525
							],
							"scale":[
								1.7999999523162842,
								1.7999999523162842
							]
						}
					},
					"index":10
				},
				"metallicFactor":0,
				"roughnessFactor":0.5
			}
		},
		{
			"doubleSided":true,
			"extensions":{
				"KHR_materials_specular":{
					"specularColorFactor":[
						0.0,
						0.0,
						0.0
					]
				},
				"KHR_materials_ior":{
					"ior":1.4500000476837158
				}
			},
			"name":"mat_7.002",
			"normalTexture":{
				"index":11
			},
			"pbrMetallicRoughness":{
				"baseColorTexture":{
					"index":12
				},
				"metallicRoughnessTexture":{
					"index":13
				}
			}
		}
	],
	"meshes":[
		{
			"name":"mesh_646.001",
			"primitives":[
				{
					"attributes":{
						"POSITION":0,
						"NORMAL":1,
						"TEXCOORD_0":2,
						"TEXCOORD_1":3,
						"TEXCOORD_2":4,
						"TEXCOORD_3":5,
						"TEXCOORD_4":6,
						"TEXCOORD_5":7
					},
					"indices":8,
					"material":0
				},
				{
					"attributes":{
						"POSITION":9,
						"NORMAL":10,
						"TEXCOORD_0":11,
						"TEXCOORD_1":12,
						"TEXCOORD_2":13,
						"TEXCOORD_3":14,
						"TEXCOORD_4":15,
						"TEXCOORD_5":16
					},
					"indices":17,
					"material":1
				},
				{
					"attributes":{
						"POSITION":18,
						"NORMAL":19,
						"TEXCOORD_0":20,
						"TEXCOORD_1":21,
						"TEXCOORD_2":22,
						"TEXCOORD_3":23,
						"TEXCOORD_4":24,
						"TEXCOORD_5":25
					},
					"indices":26,
					"material":2
				},
				{
					"attributes":{
						"POSITION":27,
						"NORMAL":28,
						"TEXCOORD_0":29,
						"TEXCOORD_1":30,
						"TEXCOORD_2":31,
						"TEXCOORD_3":32,
						"TEXCOORD_4":33,
						"TEXCOORD_5":34
					},
					"indices":35,
					"material":3
				},
				{
					"attributes":{
						"POSITION":36,
						"NORMAL":37,
						"TEXCOORD_0":38,
						"TEXCOORD_1":39,
						"TEXCOORD_2":40,
						"TEXCOORD_3":41,
						"TEXCOORD_4":42,
						"TEXCOORD_5":43
					},
					"indices":44,
					"material":4
				},
				{
					"attributes":{
						"POSITION":45,
						"NORMAL":46,
						"TEXCOORD_0":47,
						"TEXCOORD_1":48,
						"TEXCOORD_2":49,
						"TEXCOORD_3":50,
						"TEXCOORD_4":51,
						"TEXCOORD_5":52
					},
					"indices":53,
					"material":5
				},
				{
					"attributes":{
						"POSITION":54,
						"NORMAL":55,
						"TEXCOORD_0":56,
						"TEXCOORD_1":57,
						"TEXCOORD_2":58,
						"TEXCOORD_3":59,
						"TEXCOORD_4":60,
						"TEXCOORD_5":61
					},
					"indices":62,
					"material":6
				}
			]
		}
	],
	"textures":[
		{
			"sampler":0,
			"source":0
		},
		{
			"sampler":0,
			"source":1
		},
		{
			"sampler":0,
			"source":2
		},
		{
			"sampler":0,
			"source":3
		},
		{
			"sampler":0,
			"source":4
		},
		{
			"sampler":0,
			"source":5
		},
		{
			"sampler":0,
			"source":6
		},
		{
			"sampler":0,
			"source":7
		},
		{
			"sampler":0,
			"source":8
		},
		{
			"sampler":0,
			"source":9
		},
		{
			"sampler":0,
			"source":10
		},
		{
			"sampler":0,
			"source":11
		},
		{
			"sampler":0,
			"source":12
		},
		{
			"sampler":0,
			"source":13
		}
	],
	"images":[
		{
			"mimeType":"image/png",
			"name":"121 copy1-high fidelity v2-2x",
			"uri":"121%20copy1-high%20fidelity%20v2-2x.png"
		},
		{
			"mimeType":"image/png",
			"name":"1231-high fidelity v2-2x",
			"uri":"1231-high%20fidelity%20v2-2x.png"
		},
		{
			"mimeType":"image/png",
			"name":"1221-high fidelity v2-2x",
			"uri":"1221-high%20fidelity%20v2-2x.png"
		},
		{
			"mimeType":"image/png",
			"name":"000000008FDD01B8",
			"uri":"000000008FDD01B8.png"
		},
		{
			"mimeType":"image/png",
			"name":"00000000BCA0CCF8",
			"uri":"00000000BCA0CCF8.png"
		},
		{
			"mimeType":"image/png",
			"name":"000000007907AE38",
			"uri":"000000007907AE38.png"
		},
		{
			"mimeType":"image/png",
			"name":"meta_quest_3_mat_normal",
			"uri":"meta_quest_3_mat_normal.png"
		},
		{
			"mimeType":"image/png",
			"name":"meta_quest_3_mat_diffuse",
			"uri":"meta_quest_3_mat_diffuse.png"
		},
		{
			"mimeType":"image/png",
			"name":"meta_quest_3_mat_metallic-meta_quest_3_mat_roughness",
			"uri":"meta_quest_3_mat_metallic-meta_quest_3_mat_roughness.png"
		},
		{
			"mimeType":"image/jpeg",
			"name":"1486095311510227",
			"uri":"1486095311510227.jpg"
		},
		{
			"mimeType":"image/png",
			"name":"1486095311510227-1486095311510227.jpg",
			"uri":"1486095311510227-1486095311510227_jpg.png"
		},
		{
			"mimeType":"image/png",
			"name":"12233 copy1-high fidelity v2-2x",
			"uri":"12233%20copy1-high%20fidelity%20v2-2x.png"
		},
		{
			"mimeType":"image/png",
			"name":"000000008B175AF8",
			"uri":"000000008B175AF8.png"
		},
		{
			"mimeType":"image/png",
			"name":"00000000B034A138",
			"uri":"00000000B034A138.png"
		}
	],
	"accessors":[
		{
			"bufferView":0,
			"componentType":5126,
			"count":1355,
			"max":[
				225.1394805908203,
				424.3556823730469,
				27.486801147460938
			],
			"min":[
				-136.5178985595703,
				-76.74776458740234,
				-559.8434448242188
			],
			"type":"VEC3"
		},
		{
			"bufferView":1,
			"componentType":5126,
			"count":1355,
			"type":"VEC3"
		},
		{
			"bufferView":2,
			"componentType":5126,
			"count":1355,
			"type":"VEC2"
		},
		{
			"bufferView":3,
			"componentType":5126,
			"count":1355,
			"type":"VEC2"
		},
		{
			"bufferView":4,
			"componentType":5126,
			"count":1355,
			"type":"VEC2"
		},
		{
			"bufferView":5,
			"componentType":5126,
			"count":1355,
			"type":"VEC2"
		},
		{
			"bufferView":6,
			"componentType":5126,
			"count":1355,
			"type":"VEC2"
		},
		{
			"bufferView":7,
			"componentType":5126,
			"count":1355,
			"type":"VEC2"
		},
		{
			"bufferView":8,
			"componentType":5123,
			"count":6042,
			"type":"SCALAR"
		},
		{
			"bufferView":9,
			"componentType":5126,
			"count":1008,
			"max":[
				36.992774963378906,
				215.31716918945312,
				-476.5223083496094
			],
			"min":[
				-132.87828063964844,
				86.15937042236328,
				-657.863525390625
			],
			"type":"VEC3"
		},
		{
			"bufferView":10,
			"componentType":5126,
			"count":1008,
			"type":"VEC3"
		},
		{
			"bufferView":11,
			"componentType":5126,
			"count":1008,
			"type":"VEC2"
		},
		{
			"bufferView":12,
			"componentType":5126,
			"count":1008,
			"type":"VEC2"
		},
		{
			"bufferView":13,
			"componentType":5126,
			"count":1008,
			"type":"VEC2"
		},
		{
			"bufferView":14,
			"componentType":5126,
			"count":1008,
			"type":"VEC2"
		},
		{
			"bufferView":15,
			"componentType":5126,
			"count":1008,
			"type":"VEC2"
		},
		{
			"bufferView":16,
			"componentType":5126,
			"count":1008,
			"type":"VEC2"
		},
		{
			"bufferView":17,
			"componentType":5123,
			"count":2460,
			"type":"SCALAR"
		},
		{
			"bufferView":18,
			"componentType":5126,
			"count":3421,
			"max":[
				73.51466369628906,
				223.38662719726562,
				-362.1722717285156
			],
			"min":[
				-104.49661254882812,
				79.28271484375,
				-619.32763671875
			],
			"type":"VEC3"
		},
		{
			"bufferView":19,
			"componentType":5126,
			"count":3421,
			"type":"VEC3"
		},
		{
			"bufferView":20,
			"componentType":5126,
			"count":3421,
			"type":"VEC2"
		},
		{
			"bufferView":21,
			"componentType":5126,
			"count":3421,
			"type":"VEC2"
		},
		{
			"bufferView":22,
			"componentType":5126,
			"count":3421,
			"type":"VEC2"
		},
		{
			"bufferView":23,
			"componentType":5126,
			"count":3421,
			"type":"VEC2"
		},
		{
			"bufferView":24,
			"componentType":5126,
			"count":3421,
			"type":"VEC2"
		},
		{
			"bufferView":25,
			"componentType":5126,
			"count":3421,
			"type":"VEC2"
		},
		{
			"bufferView":26,
			"componentType":5123,
			"count":14586,
			"type":"SCALAR"
		},
		{
			"bufferView":27,
			"componentType":5126,
			"count":1132,
			"max":[
				239.7130584716797,
				428.2786865234375,
				137.6406707763672
			],
			"min":[
				-64.49798583984375,
				-69.00071716308594,
				-669.6915893554688
			],
			"type":"VEC3"
		},
		{
			"bufferView":28,
			"componentType":5126,
			"count":1132,
			"type":"VEC3"
		},
		{
			"bufferView":29,
			"componentType":5126,
			"count":1132,
			"type":"VEC2"
		},
		{
			"bufferView":30,
			"componentType":5126,
			"count":1132,
			"type":"VEC2"
		},
		{
			"bufferView":31,
			"componentType":5126,
			"count":1132,
			"type":"VEC2"
		},
		{
			"bufferView":32,
			"componentType":5126,
			"count":1132,
			"type":"VEC2"
		},
		{
			"bufferView":33,
			"componentType":5126,
			"count":1132,
			"type":"VEC2"
		},
		{
			"bufferView":34,
			"componentType":5126,
			"count":1132,
			"type":"VEC2"
		},
		{
			"bufferView":35,
			"componentType":5123,
			"count":5592,
			"type":"SCALAR"
		},
		{
			"bufferView":36,
			"componentType":5126,
			"count":7182,
			"max":[
				85.55891418457031,
				220.5394744873047,
				-506.14898681640625
			],
			"min":[
				-106.1670150756836,
				83.00619506835938,
				-614.3176879882812
			],
			"type":"VEC3"
		},
		{
			"bufferView":37,
			"componentType":5126,
			"count":7182,
			"type":"VEC3"
		},
		{
			"bufferView":38,
			"componentType":5126,
			"count":7182,
			"type":"VEC2"
		},
		{
			"bufferView":39,
			"componentType":5126,
			"count":7182,
			"type":"VEC2"
		},
		{
			"bufferView":40,
			"componentType":5126,
			"count":7182,
			"type":"VEC2"
		},
		{
			"bufferView":41,
			"componentType":5126,
			"count":7182,
			"type":"VEC2"
		},
		{
			"bufferView":42,
			"componentType":5126,
			"count":7182,
			"type":"VEC2"
		},
		{
			"bufferView":43,
			"componentType":5126,
			"count":7182,
			"type":"VEC2"
		},
		{
			"bufferView":44,
			"componentType":5123,
			"count":18204,
			"type":"SCALAR"
		},
		{
			"bufferView":45,
			"componentType":5126,
			"count":4,
			"max":[
				262.38165283203125,
				512.7461547851562,
				-532.7427368164062
			],
			"min":[
				262.3815612792969,
				222.79437255859375,
				-822.6946411132812
			],
			"type":"VEC3"
		},
		{
			"bufferView":46,
			"componentType":5126,
			"count":4,
			"type":"VEC3"
		},
		{
			"bufferView":47,
			"componentType":5126,
			"count":4,
			"type":"VEC2"
		},
		{
			"bufferView":48,
			"componentType":5126,
			"count":4,
			"type":"VEC2"
		},
		{
			"bufferView":49,
			"componentType":5126,
			"count":4,
			"type":"VEC2"
		},
		{
			"bufferView":50,
			"componentType":5126,
			"count":4,
			"type":"VEC2"
		},
		{
			"bufferView":51,
			"componentType":5126,
			"count":4,
			"type":"VEC2"
		},
		{
			"bufferView":52,
			"componentType":5126,
			"count":4,
			"type":"VEC2"
		},
		{
			"bufferView":53,
			"componentType":5123,
			"count":6,
			"type":"SCALAR"
		},
		{
			"bufferView":54,
			"componentType":5126,
			"count":200,
			"max":[
				80.50193786621094,
				304.1107177734375,
				234.330810546875
			],
			"min":[
				-142.54368591308594,
				-12.909835815429688,
				-48.574462890625
			],
			"type":"VEC3"
		},
		{
			"bufferView":55,
			"componentType":5126,
			"count":200,
			"type":"VEC3"
		},
		{
			"bufferView":56,
			"componentType":5126,
			"count":200,
			"type":"VEC2"
		},
		{
			"bufferView":57,
			"componentType":5126,
			"count":200,
			"type":"VEC2"
		},
		{
			"bufferView":58,
			"componentType":5126,
			"count":200,
			"type":"VEC2"
		},
		{
			"bufferView":59,
			"componentType":5126,
			"count":200,
			"type":"VEC2"
		},
		{
			"bufferView":60,
			"componentType":5126,
			"count":200,
			"type":"VEC2"
		},
		{
			"bufferView":61,
			"componentType":5126,
			"count":200,
			"type":"VEC2"
		},
		{
			"bufferView":62,
			"componentType":5123,
			"count":1050,
			"type":"SCALAR"
		}
	],
	"bufferViews":[
		{
			"buffer":0,
			"byteLength":16260,
			"byteOffset":0,
			"target":34962
		},
		{
			"buffer":0,
			"byteLength":16260,
			"byteOffset":16260,
			"target":34962
		},
		{
			"buffer":0,
			"byteLength":10840,
			"byteOffset":32520,
			"target":34962
		},
		{
			"buffer":0,
			"byteLength":10840,
			"byteOffset":43360,
			"target":34962
		},
		{
			"buffer":0,
			"byteLength":10840,
			"byteOffset":54200,
			"target":34962
		},
		{
			"buffer":0,
			"byteLength":10840,
			"byteOffset":65040,
			"target":34962
		},
		{
			"buffer":0,
			"byteLength":10840,
			"byteOffset":75880,
			"target":34962
		},
		{
			"buffer":0,
			"byteLength":10840,
			"byteOffset":86720,
			"target":34962
		},
		{
			"buffer":0,
			"byteLength":12084,
			"byteOffset":97560,
			"target":34963
		},
		{
			"buffer":0,
			"byteLength":12096,
			"byteOffset":109644,
			"target":34962
		},
		{
			"buffer":0,
			"byteLength":12096,
			"byteOffset":121740,
			"target":34962
		},
		{
			"buffer":0,
			"byteLength":8064,
			"byteOffset":133836,
			"target":34962
		},
		{
			"buffer":0,
			"byteLength":8064,
			"byteOffset":141900,
			"target":34962
		},
		{
			"buffer":0,
			"byteLength":8064,
			"byteOffset":149964,
			"target":34962
		},
		{
			"buffer":0,
			"byteLength":8064,
			"byteOffset":158028,
			"target":34962
		},
		{
			"buffer":0,
			"byteLength":8064,
			"byteOffset":166092,
			"target":34962
		},
		{
			"buffer":0,
			"byteLength":8064,
			"byteOffset":174156,
			"target":34962
		},
		{
			"buffer":0,
			"byteLength":4920,
			"byteOffset":182220,
			"target":34963
		},
		{
			"buffer":0,
			"byteLength":41052,
			"byteOffset":187140,
			"target":34962
		},
		{
			"buffer":0,
			"byteLength":41052,
			"byteOffset":228192,
			"target":34962
		},
		{
			"buffer":0,
			"byteLength":27368,
			"byteOffset":269244,
			"target":34962
		},
		{
			"buffer":0,
			"byteLength":27368,
			"byteOffset":296612,
			"target":34962
		},
		{
			"buffer":0,
			"byteLength":27368,
			"byteOffset":323980,
			"target":34962
		},
		{
			"buffer":0,
			"byteLength":27368,
			"byteOffset":351348,
			"target":34962
		},
		{
			"buffer":0,
			"byteLength":27368,
			"byteOffset":378716,
			"target":34962
		},
		{
			"buffer":0,
			"byteLength":27368,
			"byteOffset":406084,
			"target":34962
		},
		{
			"buffer":0,
			"byteLength":29172,
			"byteOffset":433452,
			"target":34963
		},
		{
			"buffer":0,
			"byteLength":13584,
			"byteOffset":462624,
			"target":34962
		},
		{
			"buffer":0,
			"byteLength":13584,
			"byteOffset":476208,
			"target":34962
		},
		{
			"buffer":0,
			"byteLength":9056,
			"byteOffset":489792,
			"target":34962
		},
		{
			"buffer":0,
			"byteLength":9056,
			"byteOffset":498848,
			"target":34962
		},
		{
			"buffer":0,
			"byteLength":9056,
			"byteOffset":507904,
			"target":34962
		},
		{
			"buffer":0,
			"byteLength":9056,
			"byteOffset":516960,
			"target":34962
		},
		{
			"buffer":0,
			"byteLength":9056,
			"byteOffset":526016,
			"target":34962
		},
		{
			"buffer":0,
			"byteLength":9056,
			"byteOffset":535072,
			"target":34962
		},
		{
			"buffer":0,
			"byteLength":11184,
			"byteOffset":544128,
			"target":34963
		},
		{
			"buffer":0,
			"byteLength":86184,
			"byteOffset":555312,
			"target":34962
		},
		{
			"buffer":0,
			"byteLength":86184,
			"byteOffset":641496,
			"target":34962
		},
		{
			"buffer":0,
			"byteLength":57456,
			"byteOffset":727680,
			"target":34962
		},
		{
			"buffer":0,
			"byteLength":57456,
			"byteOffset":785136,
			"target":34962
		},
		{
			"buffer":0,
			"byteLength":57456,
			"byteOffset":842592,
			"target":34962
		},
		{
			"buffer":0,
			"byteLength":57456,
			"byteOffset":900048,
			"target":34962
		},
		{
			"buffer":0,
			"byteLength":57456,
			"byteOffset":957504,
			"target":34962
		},
		{
			"buffer":0,
			"byteLength":57456,
			"byteOffset":1014960,
			"target":34962
		},
		{
			"buffer":0,
			"byteLength":36408,
			"byteOffset":1072416,
			"target":34963
		},
		{
			"buffer":0,
			"byteLength":48,
			"byteOffset":1108824,
			"target":34962
		},
		{
			"buffer":0,
			"byteLength":48,
			"byteOffset":1108872,
			"target":34962
		},
		{
			"buffer":0,
			"byteLength":32,
			"byteOffset":1108920,
			"target":34962
		},
		{
			"buffer":0,
			"byteLength":32,
			"byteOffset":1108952,
			"target":34962
		},
		{
			"buffer":0,
			"byteLength":32,
			"byteOffset":1108984,
			"target":34962
		},
		{
			"buffer":0,
			"byteLength":32,
			"byteOffset":1109016,
			"target":34962
		},
		{
			"buffer":0,
			"byteLength":32,
			"byteOffset":1109048,
			"target":34962
		},
		{
			"buffer":0,
			"byteLength":32,
			"byteOffset":1109080,
			"target":34962
		},
		{
			"buffer":0,
			"byteLength":12,
			"byteOffset":1109112,
			"target":34963
		},
		{
			"buffer":0,
			"byteLength":2400,
			"byteOffset":1109124,
			"target":34962
		},
		{
			"buffer":0,
			"byteLength":2400,
			"byteOffset":1111524,
			"target":34962
		},
		{
			"buffer":0,
			"byteLength":1600,
			"byteOffset":1113924,
			"target":34962
		},
		{
			"buffer":0,
			"byteLength":1600,
			"byteOffset":1115524,
			"target":34962
		},
		{
			"buffer":0,
			"byteLength":1600,
			"byteOffset":1117124,
			"target":34962
		},
		{
			"buffer":0,
			"byteLength":1600,
			"byteOffset":1118724,
			"target":34962
		},
		{
			"buffer":0,
			"byteLength":1600,
			"byteOffset":1120324,
			"target":34962
		},
		{
			"buffer":0,
			"byteLength":1600,
			"byteOffset":1121924,
			"target":34962
		},
		{
			"buffer":0,
			"byteLength":2100,
			"byteOffset":1123524,
			"target":34963
		}
	],
	"samplers":[
		{
			"magFilter":9729,
			"minFilter":9987
		}
	],
	"buffers":[
		{
			"byteLength":1125624,
			"uri":"scene.bin"
		}
	]
}
