{
	"asset":{
		"generator":"Khronos glTF Blender I/O v3.6.28",
		"version":"2.0"
	},
	"extensionsUsed":[
		"KHR_materials_specular",
		"KHR_materials_ior",
		"KHR_materials_transmission",
		"KHR_materials_emissive_strength"
	],
	"scene":0,
	"scenes":[
		{
			"name":"Scene",
			"nodes":[
				0
			]
		}
	],
	"nodes":[
		{
			"mesh":0,
			"name":"dRAWER",
			"rotation":[
				0.7071066498756409,
				0,
				0,
				0.70710688829422
			],
			"scale":[
				0.009999999776482582,
				0.009999999776482582,
				0.009999998845160007
			]
		}
	],
	"materials":[
		{
			"doubleSided":true,
			"extensions":{
				"KHR_materials_specular":{
					"specularColorFactor":[
						0.0,
						0.0,
						0.0
					]
				},
				"KHR_materials_ior":{
					"ior":1.4500000476837158
				}
			},
			"name":"sHIRT",
			"normalTexture":{
				"index":0,
				"scale":2.5999999046325684
			},
			"pbrMetallicRoughness":{
				"baseColorTexture":{
					"index":1
				},
				"metallicRoughnessTexture":{
					"index":2
				}
			}
		},
		{
			"alphaMode":"BLEND",
			"doubleSided":true,
			"name":"hAIR",
			"pbrMetallicRoughness":{
				"baseColorFactor":[
					0,
					0,
					0,
					1
				],
				"baseColorTexture":{
					"index":3
				},
				"metallicFactor":0.4727272689342499,
				"roughnessFactor":0.5
			}
		},
		{
			"doubleSided":true,
			"extensions":{
				"KHR_materials_specular":{
					"specularColorFactor":[
						0.0,
						0.0,
						0.0
					]
				},
				"KHR_materials_ior":{
					"ior":1.4500000476837158
				}
			},
			"name":"sKIN_FACE",
			"pbrMetallicRoughness":{
				"baseColorTexture":{
					"index":4
				},
				"metallicFactor":0,
				"roughnessFactor":0.5
			}
		},
		{
			"doubleSided":true,
			"name":"sKIN_HAND",
			"pbrMetallicRoughness":{
				"baseColorTexture":{
					"index":5
				},
				"metallicFactor":0,
				"roughnessFactor":0.5
			}
		},
		{
			"doubleSided":true,
			"name":"qUEST_MAT",
			"normalTexture":{
				"index":6
			},
			"pbrMetallicRoughness":{
				"baseColorTexture":{
					"index":7
				},
				"metallicRoughnessTexture":{
					"index":8
				}
			}
		},
		{
			"alphaMode":"BLEND",
			"doubleSided":true,
			"emissiveFactor":[
				1,
				1,
				1
			],
			"emissiveTexture":{
				"index":9
			},
			"extensions":{
				"KHR_materials_transmission":{
					"transmissionFactor":1
				},
				"KHR_materials_emissive_strength":{
					"emissiveStrength":2
				},
				"KHR_materials_ior":{
					"ior":1.4500000476837158
				}
			},
			"name":"Sci-fi glass",
			"pbrMetallicRoughness":{
				"baseColorTexture":{
					"index":10
				},
				"metallicFactor":0,
				"roughnessFactor":0.3499999940395355
			}
		},
		{
			"alphaMode":"BLEND",
			"doubleSided":true,
			"emissiveFactor":[
				1,
				1,
				1
			],
			"emissiveTexture":{
				"index":11
			},
			"extensions":{
				"KHR_materials_transmission":{
					"transmissionFactor":1
				},
				"KHR_materials_emissive_strength":{
					"emissiveStrength":2
				},
				"KHR_materials_ior":{
					"ior":1.4500000476837158
				}
			},
			"name":"Sci-fi glass.001",
			"pbrMetallicRoughness":{
				"baseColorTexture":{
					"index":12
				},
				"metallicFactor":0,
				"roughnessFactor":0.3499999940395355
			}
		}
	],
	"meshes":[
		{
			"name":"mesh_646.005",
			"primitives":[
				{
					"attributes":{
						"POSITION":0,
						"NORMAL":1,
						"TEXCOORD_0":2,
						"TEXCOORD_1":3,
						"TEXCOORD_2":4,
						"TEXCOORD_3":5,
						"TEXCOORD_4":6,
						"TEXCOORD_5":7
					},
					"indices":8,
					"material":0
				},
				{
					"attributes":{
						"POSITION":9,
						"NORMAL":10,
						"TEXCOORD_0":11,
						"TEXCOORD_1":12,
						"TEXCOORD_2":13,
						"TEXCOORD_3":14,
						"TEXCOORD_4":15,
						"TEXCOORD_5":16
					},
					"indices":17,
					"material":1
				},
				{
					"attributes":{
						"POSITION":18,
						"NORMAL":19,
						"TEXCOORD_0":20,
						"TEXCOORD_1":21,
						"TEXCOORD_2":22,
						"TEXCOORD_3":23,
						"TEXCOORD_4":24,
						"TEXCOORD_5":25
					},
					"indices":26,
					"material":2
				},
				{
					"attributes":{
						"POSITION":27,
						"NORMAL":28,
						"TEXCOORD_0":29,
						"TEXCOORD_1":30,
						"TEXCOORD_2":31,
						"TEXCOORD_3":32,
						"TEXCOORD_4":33,
						"TEXCOORD_5":34
					},
					"indices":35,
					"material":3
				},
				{
					"attributes":{
						"POSITION":36,
						"NORMAL":37,
						"TEXCOORD_0":38,
						"TEXCOORD_1":39,
						"TEXCOORD_2":40,
						"TEXCOORD_3":41,
						"TEXCOORD_4":42,
						"TEXCOORD_5":43
					},
					"indices":44,
					"material":4
				},
				{
					"attributes":{
						"POSITION":45,
						"NORMAL":46,
						"TEXCOORD_0":47,
						"TEXCOORD_1":48,
						"TEXCOORD_2":49,
						"TEXCOORD_3":50,
						"TEXCOORD_4":51,
						"TEXCOORD_5":52
					},
					"indices":53,
					"material":5
				},
				{
					"attributes":{
						"POSITION":54,
						"NORMAL":55,
						"TEXCOORD_0":56,
						"TEXCOORD_1":57,
						"TEXCOORD_2":58,
						"TEXCOORD_3":59,
						"TEXCOORD_4":60,
						"TEXCOORD_5":61
					},
					"indices":53,
					"material":6
				}
			]
		}
	],
	"textures":[
		{
			"sampler":0,
			"source":0
		},
		{
			"sampler":0,
			"source":1
		},
		{
			"sampler":0,
			"source":2
		},
		{
			"sampler":0,
			"source":3
		},
		{
			"sampler":0,
			"source":4
		},
		{
			"sampler":0,
			"source":5
		},
		{
			"sampler":0,
			"source":6
		},
		{
			"sampler":0,
			"source":7
		},
		{
			"sampler":0,
			"source":8
		},
		{
			"sampler":0,
			"source":9
		},
		{
			"sampler":0,
			"source":9
		},
		{
			"sampler":0,
			"source":10
		},
		{
			"sampler":0,
			"source":11
		}
	],
	"images":[
		{
			"mimeType":"image/png",
			"name":"121 copy1-high fidelity v2-2x",
			"uri":"121%20copy1-high%20fidelity%20v2-2x.png"
		},
		{
			"mimeType":"image/png",
			"name":"1231-high fidelity v2-2x",
			"uri":"1231-high%20fidelity%20v2-2x.png"
		},
		{
			"mimeType":"image/png",
			"name":"1221-high fidelity v2-2x",
			"uri":"1221-high%20fidelity%20v2-2x.png"
		},
		{
			"mimeType":"image/png",
			"name":"000000008FDD01B8",
			"uri":"000000008FDD01B8.png"
		},
		{
			"mimeType":"image/png",
			"name":"00000000BCA0CCF8",
			"uri":"00000000BCA0CCF8.png"
		},
		{
			"mimeType":"image/png",
			"name":"000000007907AE38",
			"uri":"000000007907AE38.png"
		},
		{
			"mimeType":"image/png",
			"name":"meta_quest_3_mat_normal",
			"uri":"meta_quest_3_mat_normal.png"
		},
		{
			"mimeType":"image/png",
			"name":"meta_quest_3_mat_diffuse",
			"uri":"meta_quest_3_mat_diffuse.png"
		},
		{
			"mimeType":"image/png",
			"name":"meta_quest_3_mat_metallic-meta_quest_3_mat_roughness",
			"uri":"meta_quest_3_mat_metallic-meta_quest_3_mat_roughness.png"
		},
		{
			"mimeType":"image/png",
			"name":"01",
			"uri":"01.png"
		},
		{
			"mimeType":"image/png",
			"name":"02",
			"uri":"02.png"
		},
		{
			"mimeType":"image/png",
			"name":"02",
			"uri":"02-1.png"
		}
	],
	"accessors":[
		{
			"bufferView":0,
			"componentType":5126,
			"count":1133,
			"max":[
				225.1394805908203,
				424.3556823730469,
				27.486804962158203
			],
			"min":[
				-136.5178985595703,
				-76.74776458740234,
				-559.843505859375
			],
			"type":"VEC3"
		},
		{
			"bufferView":1,
			"componentType":5126,
			"count":1133,
			"type":"VEC3"
		},
		{
			"bufferView":2,
			"componentType":5126,
			"count":1133,
			"type":"VEC2"
		},
		{
			"bufferView":3,
			"componentType":5126,
			"count":1133,
			"type":"VEC2"
		},
		{
			"bufferView":4,
			"componentType":5126,
			"count":1133,
			"type":"VEC2"
		},
		{
			"bufferView":5,
			"componentType":5126,
			"count":1133,
			"type":"VEC2"
		},
		{
			"bufferView":6,
			"componentType":5126,
			"count":1133,
			"type":"VEC2"
		},
		{
			"bufferView":7,
			"componentType":5126,
			"count":1133,
			"type":"VEC2"
		},
		{
			"bufferView":8,
			"componentType":5123,
			"count":5310,
			"type":"SCALAR"
		},
		{
			"bufferView":9,
			"componentType":5126,
			"count":1008,
			"max":[
				36.992774963378906,
				215.31716918945312,
				-476.5223083496094
			],
			"min":[
				-132.87828063964844,
				86.15937042236328,
				-657.863525390625
			],
			"type":"VEC3"
		},
		{
			"bufferView":10,
			"componentType":5126,
			"count":1008,
			"type":"VEC3"
		},
		{
			"bufferView":11,
			"componentType":5126,
			"count":1008,
			"type":"VEC2"
		},
		{
			"bufferView":12,
			"componentType":5126,
			"count":1008,
			"type":"VEC2"
		},
		{
			"bufferView":13,
			"componentType":5126,
			"count":1008,
			"type":"VEC2"
		},
		{
			"bufferView":14,
			"componentType":5126,
			"count":1008,
			"type":"VEC2"
		},
		{
			"bufferView":15,
			"componentType":5126,
			"count":1008,
			"type":"VEC2"
		},
		{
			"bufferView":16,
			"componentType":5126,
			"count":1008,
			"type":"VEC2"
		},
		{
			"bufferView":17,
			"componentType":5123,
			"count":2460,
			"type":"SCALAR"
		},
		{
			"bufferView":18,
			"componentType":5126,
			"count":3368,
			"max":[
				73.51466369628906,
				223.38662719726562,
				-394.4461669921875
			],
			"min":[
				-100.47767639160156,
				80.80961608886719,
				-612.0799560546875
			],
			"type":"VEC3"
		},
		{
			"bufferView":19,
			"componentType":5126,
			"count":3368,
			"type":"VEC3"
		},
		{
			"bufferView":20,
			"componentType":5126,
			"count":3368,
			"type":"VEC2"
		},
		{
			"bufferView":21,
			"componentType":5126,
			"count":3368,
			"type":"VEC2"
		},
		{
			"bufferView":22,
			"componentType":5126,
			"count":3368,
			"type":"VEC2"
		},
		{
			"bufferView":23,
			"componentType":5126,
			"count":3368,
			"type":"VEC2"
		},
		{
			"bufferView":24,
			"componentType":5126,
			"count":3368,
			"type":"VEC2"
		},
		{
			"bufferView":25,
			"componentType":5126,
			"count":3368,
			"type":"VEC2"
		},
		{
			"bufferView":26,
			"componentType":5123,
			"count":14217,
			"type":"SCALAR"
		},
		{
			"bufferView":27,
			"componentType":5126,
			"count":1132,
			"max":[
				239.7130584716797,
				428.2786865234375,
				137.64068603515625
			],
			"min":[
				-64.49798583984375,
				-69.00071716308594,
				-669.691650390625
			],
			"type":"VEC3"
		},
		{
			"bufferView":28,
			"componentType":5126,
			"count":1132,
			"type":"VEC3"
		},
		{
			"bufferView":29,
			"componentType":5126,
			"count":1132,
			"type":"VEC2"
		},
		{
			"bufferView":30,
			"componentType":5126,
			"count":1132,
			"type":"VEC2"
		},
		{
			"bufferView":31,
			"componentType":5126,
			"count":1132,
			"type":"VEC2"
		},
		{
			"bufferView":32,
			"componentType":5126,
			"count":1132,
			"type":"VEC2"
		},
		{
			"bufferView":33,
			"componentType":5126,
			"count":1132,
			"type":"VEC2"
		},
		{
			"bufferView":34,
			"componentType":5126,
			"count":1132,
			"type":"VEC2"
		},
		{
			"bufferView":35,
			"componentType":5123,
			"count":5592,
			"type":"SCALAR"
		},
		{
			"bufferView":36,
			"componentType":5126,
			"count":5761,
			"max":[
				85.55891418457031,
				220.5394744873047,
				-506.1490478515625
			],
			"min":[
				-106.1670150756836,
				83.00619506835938,
				-606.0720825195312
			],
			"type":"VEC3"
		},
		{
			"bufferView":37,
			"componentType":5126,
			"count":5761,
			"type":"VEC3"
		},
		{
			"bufferView":38,
			"componentType":5126,
			"count":5761,
			"type":"VEC2"
		},
		{
			"bufferView":39,
			"componentType":5126,
			"count":5761,
			"type":"VEC2"
		},
		{
			"bufferView":40,
			"componentType":5126,
			"count":5761,
			"type":"VEC2"
		},
		{
			"bufferView":41,
			"componentType":5126,
			"count":5761,
			"type":"VEC2"
		},
		{
			"bufferView":42,
			"componentType":5126,
			"count":5761,
			"type":"VEC2"
		},
		{
			"bufferView":43,
			"componentType":5126,
			"count":5761,
			"type":"VEC2"
		},
		{
			"bufferView":44,
			"componentType":5123,
			"count":14304,
			"type":"SCALAR"
		},
		{
			"bufferView":45,
			"componentType":5126,
			"count":24,
			"max":[
				390.49151611328125,
				597.5794067382812,
				-568.563720703125
			],
			"min":[
				317.5692138671875,
				137.9611358642578,
				-858.5157470703125
			],
			"type":"VEC3"
		},
		{
			"bufferView":46,
			"componentType":5126,
			"count":24,
			"type":"VEC3"
		},
		{
			"bufferView":47,
			"componentType":5126,
			"count":24,
			"type":"VEC2"
		},
		{
			"bufferView":48,
			"componentType":5126,
			"count":24,
			"type":"VEC2"
		},
		{
			"bufferView":49,
			"componentType":5126,
			"count":24,
			"type":"VEC2"
		},
		{
			"bufferView":50,
			"componentType":5126,
			"count":24,
			"type":"VEC2"
		},
		{
			"bufferView":51,
			"componentType":5126,
			"count":24,
			"type":"VEC2"
		},
		{
			"bufferView":52,
			"componentType":5126,
			"count":24,
			"type":"VEC2"
		},
		{
			"bufferView":53,
			"componentType":5123,
			"count":36,
			"type":"SCALAR"
		},
		{
			"bufferView":54,
			"componentType":5126,
			"count":24,
			"max":[
				346.68865966796875,
				551.2547607421875,
				-473.21685791015625
			],
			"min":[
				269.8535461425781,
				184.2856903076172,
				-548.182373046875
			],
			"type":"VEC3"
		},
		{
			"bufferView":55,
			"componentType":5126,
			"count":24,
			"type":"VEC3"
		},
		{
			"bufferView":56,
			"componentType":5126,
			"count":24,
			"type":"VEC2"
		},
		{
			"bufferView":57,
			"componentType":5126,
			"count":24,
			"type":"VEC2"
		},
		{
			"bufferView":58,
			"componentType":5126,
			"count":24,
			"type":"VEC2"
		},
		{
			"bufferView":59,
			"componentType":5126,
			"count":24,
			"type":"VEC2"
		},
		{
			"bufferView":60,
			"componentType":5126,
			"count":24,
			"type":"VEC2"
		},
		{
			"bufferView":61,
			"componentType":5126,
			"count":24,
			"type":"VEC2"
		}
	],
	"bufferViews":[
		{
			"buffer":0,
			"byteLength":13596,
			"byteOffset":0,
			"target":34962
		},
		{
			"buffer":0,
			"byteLength":13596,
			"byteOffset":13596,
			"target":34962
		},
		{
			"buffer":0,
			"byteLength":9064,
			"byteOffset":27192,
			"target":34962
		},
		{
			"buffer":0,
			"byteLength":9064,
			"byteOffset":36256,
			"target":34962
		},
		{
			"buffer":0,
			"byteLength":9064,
			"byteOffset":45320,
			"target":34962
		},
		{
			"buffer":0,
			"byteLength":9064,
			"byteOffset":54384,
			"target":34962
		},
		{
			"buffer":0,
			"byteLength":9064,
			"byteOffset":63448,
			"target":34962
		},
		{
			"buffer":0,
			"byteLength":9064,
			"byteOffset":72512,
			"target":34962
		},
		{
			"buffer":0,
			"byteLength":10620,
			"byteOffset":81576,
			"target":34963
		},
		{
			"buffer":0,
			"byteLength":12096,
			"byteOffset":92196,
			"target":34962
		},
		{
			"buffer":0,
			"byteLength":12096,
			"byteOffset":104292,
			"target":34962
		},
		{
			"buffer":0,
			"byteLength":8064,
			"byteOffset":116388,
			"target":34962
		},
		{
			"buffer":0,
			"byteLength":8064,
			"byteOffset":124452,
			"target":34962
		},
		{
			"buffer":0,
			"byteLength":8064,
			"byteOffset":132516,
			"target":34962
		},
		{
			"buffer":0,
			"byteLength":8064,
			"byteOffset":140580,
			"target":34962
		},
		{
			"buffer":0,
			"byteLength":8064,
			"byteOffset":148644,
			"target":34962
		},
		{
			"buffer":0,
			"byteLength":8064,
			"byteOffset":156708,
			"target":34962
		},
		{
			"buffer":0,
			"byteLength":4920,
			"byteOffset":164772,
			"target":34963
		},
		{
			"buffer":0,
			"byteLength":40416,
			"byteOffset":169692,
			"target":34962
		},
		{
			"buffer":0,
			"byteLength":40416,
			"byteOffset":210108,
			"target":34962
		},
		{
			"buffer":0,
			"byteLength":26944,
			"byteOffset":250524,
			"target":34962
		},
		{
			"buffer":0,
			"byteLength":26944,
			"byteOffset":277468,
			"target":34962
		},
		{
			"buffer":0,
			"byteLength":26944,
			"byteOffset":304412,
			"target":34962
		},
		{
			"buffer":0,
			"byteLength":26944,
			"byteOffset":331356,
			"target":34962
		},
		{
			"buffer":0,
			"byteLength":26944,
			"byteOffset":358300,
			"target":34962
		},
		{
			"buffer":0,
			"byteLength":26944,
			"byteOffset":385244,
			"target":34962
		},
		{
			"buffer":0,
			"byteLength":28434,
			"byteOffset":412188,
			"target":34963
		},
		{
			"buffer":0,
			"byteLength":13584,
			"byteOffset":440624,
			"target":34962
		},
		{
			"buffer":0,
			"byteLength":13584,
			"byteOffset":454208,
			"target":34962
		},
		{
			"buffer":0,
			"byteLength":9056,
			"byteOffset":467792,
			"target":34962
		},
		{
			"buffer":0,
			"byteLength":9056,
			"byteOffset":476848,
			"target":34962
		},
		{
			"buffer":0,
			"byteLength":9056,
			"byteOffset":485904,
			"target":34962
		},
		{
			"buffer":0,
			"byteLength":9056,
			"byteOffset":494960,
			"target":34962
		},
		{
			"buffer":0,
			"byteLength":9056,
			"byteOffset":504016,
			"target":34962
		},
		{
			"buffer":0,
			"byteLength":9056,
			"byteOffset":513072,
			"target":34962
		},
		{
			"buffer":0,
			"byteLength":11184,
			"byteOffset":522128,
			"target":34963
		},
		{
			"buffer":0,
			"byteLength":69132,
			"byteOffset":533312,
			"target":34962
		},
		{
			"buffer":0,
			"byteLength":69132,
			"byteOffset":602444,
			"target":34962
		},
		{
			"buffer":0,
			"byteLength":46088,
			"byteOffset":671576,
			"target":34962
		},
		{
			"buffer":0,
			"byteLength":46088,
			"byteOffset":717664,
			"target":34962
		},
		{
			"buffer":0,
			"byteLength":46088,
			"byteOffset":763752,
			"target":34962
		},
		{
			"buffer":0,
			"byteLength":46088,
			"byteOffset":809840,
			"target":34962
		},
		{
			"buffer":0,
			"byteLength":46088,
			"byteOffset":855928,
			"target":34962
		},
		{
			"buffer":0,
			"byteLength":46088,
			"byteOffset":902016,
			"target":34962
		},
		{
			"buffer":0,
			"byteLength":28608,
			"byteOffset":948104,
			"target":34963
		},
		{
			"buffer":0,
			"byteLength":288,
			"byteOffset":976712,
			"target":34962
		},
		{
			"buffer":0,
			"byteLength":288,
			"byteOffset":977000,
			"target":34962
		},
		{
			"buffer":0,
			"byteLength":192,
			"byteOffset":977288,
			"target":34962
		},
		{
			"buffer":0,
			"byteLength":192,
			"byteOffset":977480,
			"target":34962
		},
		{
			"buffer":0,
			"byteLength":192,
			"byteOffset":977672,
			"target":34962
		},
		{
			"buffer":0,
			"byteLength":192,
			"byteOffset":977864,
			"target":34962
		},
		{
			"buffer":0,
			"byteLength":192,
			"byteOffset":978056,
			"target":34962
		},
		{
			"buffer":0,
			"byteLength":192,
			"byteOffset":978248,
			"target":34962
		},
		{
			"buffer":0,
			"byteLength":72,
			"byteOffset":978440,
			"target":34963
		},
		{
			"buffer":0,
			"byteLength":288,
			"byteOffset":978512,
			"target":34962
		},
		{
			"buffer":0,
			"byteLength":288,
			"byteOffset":978800,
			"target":34962
		},
		{
			"buffer":0,
			"byteLength":192,
			"byteOffset":979088,
			"target":34962
		},
		{
			"buffer":0,
			"byteLength":192,
			"byteOffset":979280,
			"target":34962
		},
		{
			"buffer":0,
			"byteLength":192,
			"byteOffset":979472,
			"target":34962
		},
		{
			"buffer":0,
			"byteLength":192,
			"byteOffset":979664,
			"target":34962
		},
		{
			"buffer":0,
			"byteLength":192,
			"byteOffset":979856,
			"target":34962
		},
		{
			"buffer":0,
			"byteLength":192,
			"byteOffset":980048,
			"target":34962
		}
	],
	"samplers":[
		{
			"magFilter":9729,
			"minFilter":9987
		}
	],
	"buffers":[
		{
			"byteLength":980240,
			"uri":"scene.bin"
		}
	]
}
